<?xml version="1.0" standalone="no"?>
<!DOCTYPE svg PUBLIC "-//W3C//DTD SVG 20010904//EN"
 "http://www.w3.org/TR/2001/REC-SVG-20010904/DTD/svg10.dtd">
<svg version="1.0" xmlns="http://www.w3.org/2000/svg"
 width="300.000000pt" height="300.000000pt" viewBox="0 0 300.000000 300.000000"
 preserveAspectRatio="xMidYMid meet">
<metadata>
Created by potrace 1.10, written by Peter Selinger 2001-2011
</metadata>
<g transform="translate(0.000000,300.000000) scale(0.100000,-0.100000)"
fill="#7fffd4" stroke="none">
<path d="M2436 2203 l2 -48 90 0 91 0 3 -188 3 -187 -47 0 -48 0 0 50 0 50
-375 -2 -375 -3 0 95 0 95 -95 -3 -95 -3 0 -45 0 -44 -45 0 -45 0 0 -47 0 -48
-375 3 -375 2 0 -237 0 -238 140 3 140 4 0 -51 0 -51 -45 0 -45 0 0 -45 0 -45
94 0 95 0 -6 -34 c-3 -18 -1 -36 5 -40 17 -10 20 29 6 70 -8 21 -14 53 -14 69
l0 31 95 -4 95 -4 0 48 0 49 -119 -3 c-94 -2 -126 0 -150 12 -22 12 -60 16
-135 16 -95 0 -106 2 -116 20 -15 28 -16 351 -1 378 12 22 13 22 359 22 359 0
372 1 372 40 0 26 34 52 48 38 10 -10 18 -123 10 -130 -2 -1 -118 -5 -258 -8
l-255 -6 262 -2 262 -2 3 93 3 92 40 5 c33 4 36 6 18 12 -15 4 -23 14 -23 28
0 19 4 21 58 18 l57 -3 3 -68 c3 -66 2 -68 -20 -65 -17 2 -24 11 -29 38 l-6
35 -2 -42 -1 -42 43 -3 42 -3 3 -47 3 -48 317 2 317 2 -300 6 c-165 3 -305 8
-312 13 -6 4 -9 16 -6 27 5 19 14 20 341 20 366 0 347 3 372 -58 6 -13 19 -26
30 -29 11 -3 20 -9 20 -12 0 -4 10 -7 23 -7 16 1 23 -5 25 -21 3 -22 0 -23
-65 -23 -78 0 -89 5 -96 40 -3 19 -5 15 -6 -12 l-1 -38 90 0 90 0 0 31 c0 17
5 40 11 51 16 29 17 374 1 390 -9 9 -45 13 -157 18 -15 0 -17 2 -6 9 7 5 11
14 7 20 -4 6 4 13 19 17 28 7 180 2 189 -6 2 -3 7 -18 10 -33 7 -39 12 -44 56
-51 31 -5 40 -11 40 -26 0 -14 -9 -21 -35 -26 -19 -3 -38 -11 -43 -18 -8 -9
-21 -328 -22 -499 0 -23 -4 -36 -10 -32 -5 3 -10 2 -10 -3 0 -5 -13 -12 -30
-15 -29 -6 -30 -9 -31 -59 -1 -108 -9 -128 -55 -128 -28 0 -44 -19 -44 -53 0
-22 -4 -28 -15 -23 -8 3 -15 1 -15 -4 0 -6 -8 -10 -19 -10 -31 0 -44 -25 -37
-72 3 -24 9 -66 12 -95 6 -47 8 -51 25 -43 23 13 200 13 233 0 22 -8 26 -16
26 -50 l0 -40 40 0 c34 0 42 -4 50 -25 5 -14 9 -35 7 -48 -2 -17 3 -22 20 -20
46 5 70 -13 78 -59 l8 -43 10 33 c8 26 15 32 38 32 19 0 29 5 29 15 0 11 -12
15 -45 15 l-45 0 0 50 0 50 -50 0 -50 0 0 45 0 45 -45 0 -45 0 0 51 0 50 -140
-3 -140 -3 0 48 0 47 45 0 45 0 0 45 0 45 51 0 50 0 -3 95 -3 95 48 0 47 0 0
280 0 280 45 0 45 0 0 50 0 50 -45 0 -45 0 0 45 0 45 -142 0 -143 0 1 -47z
m-1168 -829 c13 -2 22 -10 19 -17 -2 -8 -31 -13 -78 -15 -78 -3 -109 -18 -109
-54 0 -23 -30 -35 -75 -30 l-35 4 33 22 c17 12 37 35 42 51 6 17 13 35 17 40
6 10 138 10 186 -1z m1397 -299 c0 -6 -40 -10 -97 -11 -72 -1 -98 2 -98 11 0
9 26 12 98 11 57 -1 97 -5 97 -11z m105 -95 c0 -5 -7 -10 -15 -10 -8 0 -15 5
-15 10 0 6 7 10 15 10 8 0 15 -4 15 -10z"/>
<path d="M844 1735 l-1 -45 94 0 93 0 0 45 0 45 -92 0 -93 0 -1 -45z m134 19
c30 -8 28 -34 -3 -35 -82 -4 -105 0 -105 15 0 22 60 33 108 20z"/>
<path d="M1500 1641 c0 -45 2 -49 21 -44 18 5 19 7 5 15 -21 12 -21 47 0 55
13 5 13 7 2 14 -24 16 -28 10 -28 -40z"/>
<path d="M1562 1681 c-11 -7 -11 -9 2 -14 20 -8 20 -31 0 -51 -14 -15 -14 -16
5 -16 18 0 21 6 21 45 0 46 -4 51 -28 36z"/>
<path d="M833 1605 c0 -27 2 -38 4 -22 2 15 2 37 0 50 -2 12 -4 0 -4 -28z"/>
<path d="M841 1495 c3 -2 124 -5 269 -5 155 -1 269 -5 276 -11 8 -6 14 -5 18
6 5 13 -28 15 -281 15 -157 0 -284 -2 -282 -5z"/>
<path d="M1389 1375 c-5 -63 -4 -75 9 -59 4 5 5 34 2 64 l-6 55 -5 -60z"/>
<path d="M2180 1237 c-34 -12 -35 -13 -33 -62 1 -28 5 -74 9 -102 5 -46 8 -52
23 -43 10 5 50 6 88 3 l71 -6 6 49 c19 144 19 142 -2 153 -33 17 -124 22 -162
8z m160 -61 l0 -45 -90 -3 -90 -3 0 48 0 47 90 0 90 0 0 -44z m-30 -98 c0 -4
-8 -9 -17 -9 -84 -6 -103 -5 -103 6 0 8 20 12 60 11 33 0 60 -4 60 -8z"/>
<path d="M373 1081 l6 -51 -49 0 -50 0 0 -45 0 -45 -45 0 -45 0 0 -51 0 -51
-47 4 -48 3 0 -95 c0 -70 3 -95 13 -94 6 1 660 2 1452 3 1273 1 1440 3 1440
16 0 13 -20 15 -122 15 -68 0 -714 0 -1436 0 l-1313 1 3 57 c3 61 19 76 29 27
6 -29 6 -29 19 18 12 47 15 49 70 51 22 1 26 6 30 46 5 45 5 45 50 50 43 5 45
6 42 35 -5 63 -28 60 478 60 l460 0 0 45 0 45 -472 4 -471 3 6 -51z m907 0 c0
-5 -7 -11 -15 -14 -24 -10 -844 -8 -849 2 -3 4 -3 11 1 14 10 10 863 8 863 -2z
m-1030 -196 c0 -8 -4 -15 -10 -15 -5 0 -10 7 -10 15 0 8 5 15 10 15 6 0 10 -7
10 -15z"/>
<path d="M1410 1073 c0 -52 0 -52 26 -43 17 7 32 7 45 0 18 -10 19 -7 19 42
l0 54 -45 -1 -45 0 0 -52z m58 6 c-2 -6 -8 -10 -13 -10 -5 0 -11 4 -13 10 -2
6 4 11 13 11 9 0 15 -5 13 -11z"/>
<path d="M1596 1120 c-2 -3 -1 -26 2 -52 4 -45 5 -47 25 -36 15 8 84 9 229 5
l208 -5 0 46 0 47 -231 0 c-127 0 -232 -2 -233 -5z m434 -39 c0 -16 -45 -21
-212 -21 -166 0 -203 4 -192 21 7 12 404 12 404 0z"/>
<path d="M1484 982 c-6 -28 -7 -29 -56 -23 -4 1 -5 7 -2 15 3 8 1 17 -5 21 -7
4 -11 -5 -11 -24 0 -30 1 -31 45 -31 45 0 45 0 45 35 0 42 -8 46 -16 7z"/>
<path d="M1600 925 c0 -43 2 -76 4 -74 8 8 11 138 3 145 -4 4 -7 -28 -7 -71z"/>
<path d="M2160 971 c0 -17 2 -31 4 -31 8 0 13 51 5 56 -5 3 -9 -9 -9 -25z"/>
<path d="M2237 993 c-2 -5 -1 -19 4 -33 7 -23 7 -23 8 8 1 31 -3 40 -12 25z"/>
<path d="M2440 971 c0 -17 2 -31 4 -31 8 0 13 51 5 56 -5 3 -9 -9 -9 -25z"/>
<path d="M1244 929 c-5 -8 1 -10 17 -7 13 3 47 3 74 -1 48 -6 50 -8 56 -41 6
-33 6 -32 8 13 l1 47 -74 0 c-46 0 -78 -5 -82 -11z"/>
<path d="M1992 932 c-6 -5 25 -9 70 -9 71 0 77 1 38 8 -60 10 -92 10 -108 1z"/>
<path d="M2286 932 c-3 -5 29 -9 71 -10 42 -2 75 -1 72 1 -10 9 -138 17 -143
9z"/>
<path d="M1453 833 c26 -2 68 -2 95 0 26 2 4 3 -48 3 -52 0 -74 -1 -47 -3z"/>
<path d="M190 730 c0 -7 460 -10 1360 -10 900 0 1360 3 1360 10 0 7 -460 10
-1360 10 -900 0 -1360 -3 -1360 -10z"/>
</g>
</svg>
